<?xml version="1.0" encoding="utf-8"?>
<!-- Generator: Adobe Illustrator 22.1.0, SVG Export Plug-In . SVG Version: 6.00 Build 0)  -->
<svg version="1.1" id="图层_1" xmlns="http://www.w3.org/2000/svg" xmlns:xlink="http://www.w3.org/1999/xlink" x="0px" y="0px"
	 viewBox="0 0 14 8" style="enable-background:new 0 0 14 8;" xml:space="preserve">
<style type="text/css">
	.st0{fill:#C1C7D0;}
</style>
<g transform="matrix(1 0 0 1 -626 -615 )">
	<path class="st0" d="M639.7,615.3c0.2,0.2,0.3,0.4,0.3,0.6c0,0.2-0.1,0.4-0.3,0.6l-6.1,6.2c-0.2,0.2-0.4,0.3-0.6,0.3
		s-0.4-0.1-0.6-0.3l-6.1-6.2c-0.2-0.2-0.3-0.4-0.3-0.6c0-0.2,0.1-0.4,0.3-0.6c0.2-0.2,0.4-0.3,0.6-0.3h12.2
		C639.4,615,639.6,615.1,639.7,615.3z"/>
</g>
</svg>
