<?xml version="1.0" encoding="utf-8"?>
<!-- Generator: Adobe Illustrator 22.1.0, SVG Export Plug-In . SVG Version: 6.00 Build 0)  -->
<svg version="1.1" id="图层_1" xmlns="http://www.w3.org/2000/svg" xmlns:xlink="http://www.w3.org/1999/xlink" x="0px" y="0px"
	 viewBox="0 0 21 19" style="enable-background:new 0 0 21 19;" xml:space="preserve">
<style type="text/css">
	.st0{fill:#C1C7D0;}
</style>
<g transform="matrix(1 0 0 1 -1172 -330 )">
	<path class="st0" d="M1177.7,337.1l4.3,6.2C1179,343,1177,340.1,1177.7,337.1z M1182.8,344.5c-0.1,0-0.2,0-0.3,0c-3.7,0-7-2-8.7-5
		c0.8-1.4,1.9-2.5,3.2-3.4l-1-1.5c-1.5,1-2.8,2.4-3.7,3.9c-0.3,0.6-0.3,1.2,0,1.8c2.1,3.5,5.9,5.9,10.2,5.9c0.5,0,1,0,1.4-0.1
		L1182.8,344.5z M1192.7,338.6c0.3,0.6,0.3,1.2,0,1.8c-1.2,2.1-3,3.8-5.2,4.8l1.8,2.5c0.1,0.2,0.1,0.5-0.1,0.6l-0.8,0.5
		c-0.2,0.1-0.5,0.1-0.6-0.1l-12.1-17.5c-0.1-0.2-0.1-0.5,0.1-0.6l0.8-0.5c0.2-0.1,0.5-0.1,0.6,0.1l2,2.9c1-0.3,2.1-0.5,3.3-0.5
		C1186.9,332.7,1190.7,335.1,1192.7,338.6z M1186.5,343.7c2-0.9,3.7-2.3,4.7-4.2c-1.6-2.8-4.5-4.7-7.9-5c-0.4,0.4-0.6,0.9-0.6,1.4
		c0,1.1,0.9,2.1,2,2.1s2-0.9,2-2.1v0c1.1,2.1,0.6,4.8-1.3,6.3L1186.5,343.7z"/>
</g>
</svg>
