<?xml version="1.0" encoding="utf-8"?>
<!-- Generator: Adobe Illustrator 22.1.0, SVG Export Plug-In . SVG Version: 6.00 Build 0)  -->
<svg version="1.1" id="图层_1" xmlns="http://www.w3.org/2000/svg" xmlns:xlink="http://www.w3.org/1999/xlink" x="0px" y="0px"
	 viewBox="0 0 14 14" style="enable-background:new 0 0 14 14;" xml:space="preserve">
<style type="text/css">
	.st0{fill:#1575EE;}
</style>
<g transform="matrix(1 0 0 1 -615 -888 )">
	<path class="st0" d="M620.8,898.8c0.2,0,0.3-0.1,0.4-0.2l5.6-5.6c0.1-0.1,0.2-0.3,0.2-0.4c0-0.2-0.1-0.3-0.2-0.4l-0.9-0.9
		c-0.1-0.1-0.3-0.2-0.4-0.2s-0.3,0.1-0.4,0.2l-4.3,4.3l-1.9-1.9c-0.1-0.1-0.3-0.2-0.4-0.2s-0.3,0.1-0.4,0.2l-0.9,0.9
		c-0.1,0.1-0.2,0.3-0.2,0.4s0.1,0.3,0.2,0.4l3.3,3.3C620.5,898.8,620.7,898.8,620.8,898.8z M628.2,888.8c0.5,0.5,0.8,1.1,0.8,1.9
		v8.8c0,0.7-0.3,1.3-0.8,1.9c-0.5,0.5-1.1,0.8-1.9,0.8h-8.8c-0.7,0-1.3-0.3-1.9-0.8c-0.5-0.5-0.8-1.1-0.8-1.9v-8.8
		c0-0.7,0.3-1.3,0.8-1.9c0.5-0.5,1.1-0.8,1.9-0.8h8.8C627.1,888,627.7,888.3,628.2,888.8z"/>
</g>
</svg>
